<svg width="27" height="27" viewBox="0 0 27 27" fill="none" xmlns="http://www.w3.org/2000/svg">
<path fill-rule="evenodd" clip-rule="evenodd" d="M17.0034 9.04685C17.5816 9.62504 17.5816 10.5625 17.0034 11.1406L11.1408 17.0033C10.5626 17.5815 9.62516 17.5815 9.04698 17.0033C8.46879 16.4251 8.46879 15.4877 9.04698 14.9095L14.9096 9.04685C15.4878 8.46867 16.4252 8.46867 17.0034 9.04685Z" fill="white"/>
<path fill-rule="evenodd" clip-rule="evenodd" d="M9.04685 9.0469C9.62504 8.46871 10.5625 8.46871 11.1406 9.0469L17.0033 14.9095C17.5815 15.4877 17.5815 16.4251 17.0033 17.0033C16.4251 17.5815 15.4877 17.5815 14.9095 17.0033L9.04685 11.1407C8.46867 10.5625 8.46867 9.62508 9.04685 9.0469Z" fill="white"/>
</svg>
